<?xml version="1.0" standalone="no"?>
<!DOCTYPE svg PUBLIC "-//W3C//DTD SVG 20010904//EN"
 "http://www.w3.org/TR/2001/REC-SVG-20010904/DTD/svg10.dtd">
<svg version="1.0" xmlns="http://www.w3.org/2000/svg"
 width="500.000000pt" height="500.000000pt" viewBox="0 0 500.000000 500.000000"
 preserveAspectRatio="xMidYMid meet">

<g transform="translate(0.000000,500.000000) scale(0.100000,-0.100000)"
fill="#000000" stroke="none">
<path d="M2320 4994 c-19 -2 -78 -9 -130 -15 -210 -24 -448 -87 -657 -175
-685 -286 -1211 -871 -1426 -1584 -74 -245 -102 -439 -102 -720 0 -281 28
-475 102 -720 242 -802 871 -1431 1673 -1673 245 -74 439 -102 720 -102 281 0
475 28 720 102 802 242 1431 871 1673 1673 74 245 102 439 102 720 0 281 -28
475 -102 720 -169 560 -530 1045 -1018 1366 -319 210 -663 338 -1055 394 -78
11 -439 21 -500 14z m-718 -511 c29 -26 22 -48 -32 -101 -63 -63 -142 -160
-180 -226 -17 -28 -35 -58 -40 -66 -23 -37 -60 -123 -60 -138 0 -9 -7 -30 -15
-46 -17 -33 -35 -131 -35 -197 0 -25 -3 -49 -6 -52 -9 -8 -9 -96 0 -104 3 -3
6 -30 6 -58 0 -55 18 -163 30 -180 4 -5 13 -34 21 -62 7 -29 16 -53 21 -53 4
0 8 -6 8 -14 0 -36 152 -275 191 -299 11 -7 19 -15 19 -19 0 -4 20 -26 45 -49
28 -26 45 -50 45 -65 0 -24 -33 -54 -61 -54 -32 0 -163 144 -252 276 -48 73
-87 134 -87 137 0 2 -8 22 -17 43 -9 22 -16 45 -14 52 1 6 -2 12 -7 12 -5 0
-15 28 -22 63 -7 34 -18 68 -24 76 -16 20 -15 493 0 512 7 8 15 30 19 49 4 19
12 46 18 60 6 14 11 27 11 30 3 15 81 166 88 168 4 2 8 8 8 14 0 14 61 108 70
108 4 0 19 17 33 38 14 20 52 65 84 100 63 67 98 79 135 45z m1940 -62 c43
-43 78 -84 78 -90 0 -6 4 -11 9 -11 10 0 94 -123 113 -166 7 -16 18 -35 25
-42 7 -7 13 -21 13 -30 0 -10 6 -26 14 -37 7 -11 14 -22 14 -25 0 -3 5 -16 10
-30 5 -14 13 -41 17 -60 4 -19 12 -41 19 -49 16 -20 16 -532 0 -552 -7 -8 -16
-37 -22 -64 -6 -28 -32 -91 -58 -140 -26 -50 -57 -108 -68 -130 -11 -22 -28
-49 -38 -59 -10 -11 -18 -23 -18 -26 0 -11 -79 -99 -140 -157 -64 -61 -89 -66
-120 -22 l-22 30 23 27 c13 15 47 49 74 77 90 89 222 299 240 383 4 18 13 45
20 59 8 14 17 56 21 92 3 36 9 70 11 74 15 26 -5 348 -24 397 -3 8 -7 20 -8
25 0 6 -4 17 -7 25 -4 8 -12 33 -19 54 -6 22 -27 65 -45 97 -19 31 -38 67 -44
80 -6 13 -16 33 -23 44 -21 36 -159 196 -173 202 -7 2 -20 16 -29 30 -16 24
-16 26 6 49 39 41 65 32 151 -55z m-1717 -141 c26 -29 14 -56 -60 -132 -64
-66 -145 -180 -145 -202 0 -7 -9 -29 -20 -50 -10 -21 -22 -59 -26 -85 -4 -25
-11 -51 -16 -58 -13 -16 -13 -290 0 -306 5 -6 13 -29 16 -51 4 -21 12 -50 17
-65 6 -14 10 -27 10 -28 0 -2 16 -31 36 -65 50 -86 140 -205 174 -231 37 -27
39 -70 4 -93 -13 -8 -32 -13 -43 -10 -17 6 -152 139 -152 150 0 3 -12 18 -26
33 -15 15 -35 47 -46 70 -10 23 -23 45 -28 48 -6 3 -10 13 -10 20 0 8 -11 38
-24 67 -13 29 -27 73 -31 98 -4 25 -12 51 -17 57 -13 16 -13 290 0 306 5 7 12
32 16 56 4 24 15 63 26 87 11 23 20 48 20 54 0 14 75 146 108 190 15 19 53 63
86 98 65 68 98 78 131 42z m1476 -42 c113 -109 239 -333 239 -426 0 -11 6 -22
13 -24 16 -6 17 -348 1 -369 -6 -8 -15 -32 -18 -54 -16 -90 -149 -330 -198
-356 -10 -5 -18 -14 -18 -19 0 -17 -85 -89 -104 -90 -21 0 -66 37 -66 54 0 6
27 40 59 75 32 35 65 74 72 87 7 13 16 24 21 24 5 0 14 13 19 29 6 16 17 32
25 35 8 3 14 13 14 23 0 10 9 31 20 48 11 16 25 55 31 85 6 30 16 61 23 69 16
21 15 343 -1 349 -7 2 -13 13 -13 24 0 31 -22 101 -37 119 -7 8 -13 22 -13 31
0 20 -99 168 -117 175 -7 3 -13 9 -13 14 0 5 -20 29 -45 52 -51 49 -53 59 -25
87 34 34 61 25 131 -42z m-1256 -151 c23 -18 13 -82 -15 -97 -28 -15 -95 -109
-125 -174 -14 -30 -28 -83 -32 -116 -3 -33 -10 -63 -14 -66 -12 -7 -11 -51 1
-59 6 -3 10 -22 10 -41 0 -38 19 -126 30 -134 3 -3 19 -31 35 -64 16 -32 38
-64 47 -70 10 -6 18 -16 18 -22 0 -5 14 -20 31 -33 39 -29 38 -74 -2 -98 -26
-16 -28 -15 -78 27 -55 46 -149 178 -158 223 -3 15 -9 27 -13 27 -26 0 -40
278 -19 370 19 85 67 168 160 280 53 64 84 75 124 47z m1034 -52 c34 -36 66
-77 71 -90 5 -14 14 -25 19 -25 5 0 13 -10 17 -22 3 -13 15 -42 25 -66 11 -23
22 -57 25 -75 3 -17 8 -39 11 -47 6 -20 6 -171 0 -190 -3 -8 -9 -37 -12 -65
-13 -97 -143 -298 -220 -339 -34 -18 -36 -19 -55 -1 -28 25 -25 65 7 95 67 64
136 180 148 248 4 23 11 44 16 48 5 3 9 45 9 94 0 49 -4 91 -9 94 -5 4 -12 25
-16 49 -11 71 -63 161 -148 255 -23 26 -36 49 -33 58 3 9 6 19 6 24 0 9 23 17
56 19 14 1 42 -22 83 -64z m-491 -154 c9 -5 37 -18 62 -30 100 -47 162 -142
162 -251 1 -42 -5 -79 -16 -102 -20 -42 -83 -118 -98 -118 -5 0 -20 -8 -33
-18 l-23 -18 19 -40 c10 -21 18 -47 19 -56 0 -9 5 -29 12 -45 6 -15 12 -30 13
-33 1 -3 4 -12 8 -20 3 -8 8 -28 12 -45 4 -16 13 -43 20 -60 8 -16 19 -50 25
-75 7 -25 15 -49 20 -55 4 -5 13 -32 19 -60 7 -27 16 -54 20 -60 5 -5 14 -32
20 -60 7 -27 17 -55 23 -62 5 -7 7 -17 4 -22 -4 -5 -2 -12 3 -15 5 -3 15 -30
21 -58 7 -29 16 -57 20 -63 5 -5 13 -30 20 -55 6 -25 17 -58 25 -75 7 -16 16
-43 20 -60 4 -16 13 -43 20 -60 7 -16 16 -43 20 -60 4 -16 9 -37 12 -45 4 -8
7 -17 8 -20 1 -3 7 -18 13 -33 7 -16 12 -36 12 -46 0 -10 3 -21 8 -25 4 -4 7
-11 8 -14 0 -4 6 -20 12 -35 7 -16 12 -36 12 -45 1 -9 9 -35 20 -57 11 -22 19
-48 20 -58 0 -10 8 -37 19 -60 10 -23 22 -58 26 -77 4 -19 11 -40 15 -45 5 -6
14 -33 21 -60 6 -28 16 -56 22 -62 5 -7 6 -13 2 -13 -4 0 -3 -6 2 -12 6 -7 16
-37 24 -65 7 -29 16 -53 19 -53 3 0 12 -27 19 -60 8 -33 17 -60 21 -60 4 0 13
-27 20 -60 7 -33 16 -60 20 -60 4 0 10 -15 13 -34 3 -18 14 -53 25 -77 10 -24
25 -72 33 -107 7 -34 16 -62 20 -62 3 0 9 -14 13 -31 3 -17 13 -46 22 -64 14
-31 14 -35 -1 -59 -26 -40 -75 -36 -108 8 -14 18 -41 41 -59 50 -18 9 -53 30
-78 46 -25 16 -65 39 -90 51 -25 12 -58 32 -75 43 -16 12 -48 30 -70 41 -22
11 -54 30 -71 43 -17 12 -34 22 -38 22 -5 0 -22 10 -39 23 -18 12 -52 32 -77
44 -25 13 -81 45 -125 72 -44 28 -84 50 -89 51 -5 0 -24 12 -43 26 -36 27 -56
26 -103 -6 -44 -30 -84 -53 -139 -82 -30 -15 -61 -34 -70 -41 -9 -7 -34 -22
-56 -32 -22 -11 -54 -30 -71 -42 -17 -13 -35 -23 -39 -23 -4 0 -22 -10 -39
-23 -17 -13 -51 -33 -76 -45 -25 -12 -83 -46 -130 -75 -47 -28 -96 -58 -110
-65 -65 -32 -104 -61 -117 -85 -11 -21 -21 -27 -47 -27 -52 0 -62 20 -47 93 7
34 16 67 21 72 4 6 13 30 20 55 6 25 14 52 17 60 4 8 7 17 8 20 1 3 4 12 8 20
3 8 11 34 17 57 6 23 17 54 25 70 8 15 15 37 15 48 0 11 9 38 20 60 11 22 20
49 20 60 0 11 9 38 20 60 11 22 19 48 20 57 0 9 5 29 12 45 6 15 12 30 13 33
1 3 4 12 8 20 3 8 8 29 12 45 4 17 13 44 20 60 8 17 19 50 25 75 7 25 15 50
20 55 4 6 11 26 15 45 4 19 16 54 26 77 11 23 19 49 19 57 0 8 5 27 12 43 6
15 12 30 13 33 1 3 4 12 8 20 3 8 11 35 17 60 7 25 15 50 20 55 4 6 13 32 19
60 7 27 16 54 20 60 5 5 14 32 20 60 7 27 16 54 20 60 4 5 14 33 21 60 7 28
17 55 22 62 6 7 7 17 4 22 -4 5 -2 12 3 15 5 3 15 30 21 58 7 29 16 58 20 63
4 6 13 30 20 55 7 25 18 59 25 75 8 17 16 44 20 60 4 17 13 44 20 60 7 17 16
44 20 60 4 17 13 44 20 60 7 17 16 44 20 60 4 17 9 37 12 45 4 8 7 17 8 20 1
3 4 12 8 20 3 8 11 35 18 60 6 25 15 47 20 50 4 3 10 19 11 36 3 26 -5 37 -51
74 -31 27 -65 67 -83 100 -26 49 -29 62 -25 125 2 46 10 81 22 100 47 73 86
112 137 134 29 13 60 27 68 32 20 11 156 11 178 0z"/>
<path d="M2455 3780 c-54 -14 -96 -41 -127 -84 -27 -37 -29 -47 -26 -101 4
-71 34 -118 88 -141 19 -9 43 -20 52 -25 53 -28 170 9 220 70 46 54 45 145 -2
211 -38 54 -137 87 -205 70z"/>
<path d="M2460 3295 c0 -14 -4 -25 -8 -25 -5 0 -15 -26 -22 -57 -8 -32 -17
-60 -20 -63 -4 -3 -9 -16 -13 -30 -4 -21 3 -31 44 -62 27 -21 55 -38 62 -38 7
0 24 12 38 26 13 14 34 30 47 35 26 10 25 20 -9 96 -11 23 -19 49 -19 58 0 10
-7 32 -16 51 -14 29 -21 34 -50 34 -30 0 -34 -3 -34 -25z"/>
<path d="M2349 2978 c-6 -29 -19 -64 -28 -77 -14 -21 -14 -23 0 -15 34 21 119
89 119 95 0 7 -62 49 -73 49 -3 0 -11 -24 -18 -52z"/>
<path d="M2595 3010 c-10 -11 -24 -20 -32 -20 -21 0 -15 -18 10 -31 12 -6 33
-21 47 -34 14 -12 34 -25 44 -29 16 -5 17 -4 6 9 -7 8 -9 15 -5 15 4 0 2 6 -4
13 -6 8 -14 31 -19 52 -9 46 -22 53 -47 25z"/>
<path d="M2453 2912 c-51 -44 -130 -101 -147 -108 -23 -9 -16 -34 15 -53 14
-9 50 -32 80 -51 102 -67 103 -67 146 -33 21 17 43 32 48 34 24 10 115 71 115
78 0 10 -34 41 -44 41 -5 0 -23 12 -41 28 -51 41 -123 92 -132 92 -4 0 -22
-13 -40 -28z"/>
<path d="M2260 2698 c-1 -7 -9 -31 -20 -53 -11 -22 -19 -48 -20 -58 0 -10 -8
-37 -19 -60 -10 -23 -21 -57 -25 -76 -6 -33 -5 -33 12 -18 10 10 21 17 24 17
3 0 34 19 68 43 68 46 128 84 148 93 15 8 16 24 1 24 -6 0 -29 14 -52 32 -37
30 -100 68 -112 68 -3 0 -5 -6 -5 -12z"/>
<path d="M2691 2687 c-87 -56 -107 -68 -123 -73 -15 -5 -13 -10 11 -30 16 -13
32 -24 36 -24 4 0 24 -12 44 -27 45 -35 70 -50 98 -62 11 -6 24 -15 28 -20 3
-6 15 -15 25 -21 18 -10 18 -8 4 42 -8 29 -21 67 -29 83 -7 17 -16 47 -20 68
-4 20 -11 40 -16 43 -5 3 -9 14 -9 25 0 24 -7 24 -49 -4z"/>
<path d="M2450 2532 c-19 -16 -42 -32 -50 -36 -32 -15 -227 -142 -252 -164
-17 -14 -16 -16 7 -28 59 -33 72 -40 102 -61 17 -13 35 -23 40 -23 6 0 18 -9
28 -20 10 -11 22 -20 26 -20 5 0 37 -18 71 -40 35 -22 69 -40 76 -40 16 0 47
18 93 53 20 15 40 27 45 27 4 0 15 6 23 14 9 7 36 24 61 37 25 13 59 33 75 45
17 12 38 24 48 27 9 4 17 11 17 16 0 7 -61 51 -150 106 -9 6 -41 27 -72 48
-31 20 -59 37 -63 37 -4 0 -20 11 -37 25 -37 32 -46 31 -88 -3z"/>
<path d="M2097 2216 c-3 -19 -12 -50 -21 -68 -8 -18 -20 -53 -26 -78 -7 -25
-15 -49 -20 -55 -4 -5 -11 -26 -15 -45 -4 -19 -12 -46 -18 -60 -6 -14 -12 -29
-12 -35 -1 -5 -7 -23 -13 -38 -7 -16 -12 -34 -12 -41 0 -6 -5 -17 -12 -24 -7
-7 -9 -12 -5 -12 9 0 78 39 97 54 8 7 22 16 30 19 8 4 33 18 55 32 22 13 57
34 77 45 20 11 40 25 43 30 4 6 17 15 28 20 12 6 40 21 62 35 22 14 55 32 73
42 17 9 32 19 32 23 0 3 -17 14 -37 25 -21 10 -51 28 -68 40 -16 11 -50 31
-75 44 -25 13 -52 30 -60 36 -19 16 -76 45 -88 45 -5 0 -12 -16 -15 -34z"/>
<path d="M2845 2237 c-11 -7 -34 -22 -52 -34 -17 -13 -35 -23 -39 -23 -4 0
-21 -10 -38 -23 -17 -12 -53 -34 -79 -47 -26 -14 -55 -32 -63 -42 -14 -15 -12
-18 23 -34 21 -10 52 -28 69 -41 17 -13 35 -23 40 -23 6 0 25 -13 44 -30 19
-16 39 -29 43 -30 4 0 33 -16 63 -35 30 -19 57 -35 60 -35 3 0 20 -10 37 -22
35 -25 93 -58 103 -58 3 0 -2 7 -10 16 -9 8 -16 24 -16 34 0 10 -5 31 -12 47
-6 15 -10 36 -9 46 1 9 -2 17 -7 17 -5 0 -12 14 -16 31 -3 17 -12 45 -20 62
-8 18 -17 46 -21 62 -4 17 -13 44 -20 60 -8 17 -19 49 -25 73 -11 44 -21 49
-55 29z"/>
<path d="M2456 2001 c-10 -11 -32 -27 -49 -36 -18 -8 -72 -40 -121 -70 -49
-30 -92 -55 -95 -55 -3 -1 -22 -14 -41 -30 -19 -17 -38 -30 -43 -30 -4 0 -33
-16 -63 -35 -30 -19 -58 -35 -62 -35 -4 -1 -20 -11 -36 -24 -22 -18 -25 -25
-15 -32 33 -21 50 -31 115 -67 72 -39 90 -49 138 -81 16 -11 53 -32 84 -47 30
-16 63 -36 72 -44 9 -8 20 -15 24 -15 4 0 32 -16 62 -35 62 -40 81 -43 115
-17 13 9 44 28 69 41 25 13 52 29 60 35 8 6 33 20 55 31 22 11 54 30 71 42 17
13 34 23 38 23 5 0 22 10 39 22 17 12 52 33 78 47 26 14 66 36 89 49 l41 23
-23 18 c-13 9 -45 30 -73 46 -27 15 -64 39 -81 52 -17 12 -34 23 -38 23 -4 0
-22 11 -40 25 -18 14 -36 25 -39 25 -4 0 -31 16 -61 35 -30 19 -58 35 -61 35
-4 0 -21 11 -39 25 -18 14 -37 25 -41 25 -4 0 -23 11 -41 25 -39 30 -65 32
-88 6z"/>
<path d="M1880 1558 c-6 -24 -17 -56 -25 -73 -7 -16 -16 -43 -20 -60 -4 -16
-9 -37 -12 -45 -4 -8 -7 -17 -8 -20 -1 -3 -7 -18 -13 -33 -7 -16 -12 -36 -12
-46 0 -10 -3 -21 -7 -25 -5 -4 -8 -11 -9 -14 0 -4 -6 -20 -12 -35 -7 -16 -12
-36 -12 -45 -1 -9 -9 -35 -20 -57 -11 -22 -19 -48 -20 -58 0 -10 -9 -38 -20
-63 -11 -24 -23 -58 -27 -76 -3 -18 -12 -43 -19 -57 -7 -14 -12 -27 -10 -28 2
-2 37 16 77 41 41 25 94 55 119 67 25 12 59 33 76 46 17 13 34 23 38 23 5 0
22 10 39 23 18 12 50 31 72 42 22 11 51 27 65 36 34 23 110 66 140 81 14 7 38
21 55 33 44 30 88 55 108 61 26 9 21 17 -26 38 -23 11 -55 29 -72 41 -16 11
-43 27 -60 35 -16 8 -58 32 -92 53 -35 20 -65 37 -68 37 -4 0 -21 11 -39 25
-18 14 -37 25 -41 25 -4 0 -22 10 -39 23 -27 20 -80 47 -91 47 -2 0 -9 -19
-15 -42z"/>
<path d="M3060 1581 c-14 -10 -52 -33 -85 -50 -33 -18 -67 -38 -75 -45 -8 -7
-35 -22 -60 -34 -25 -12 -85 -47 -133 -77 -49 -30 -97 -57 -107 -60 -40 -13
-41 -30 -2 -50 20 -11 47 -27 60 -37 13 -9 44 -27 70 -39 26 -13 61 -32 77
-43 46 -32 65 -43 132 -77 34 -17 67 -37 74 -45 6 -8 16 -14 21 -14 6 0 24
-10 40 -22 17 -11 55 -34 86 -49 30 -16 63 -36 72 -44 9 -8 20 -15 23 -15 4 0
31 -16 61 -35 l54 -34 -11 32 c-5 18 -16 46 -23 62 -7 17 -15 47 -19 68 -4 20
-11 37 -15 37 -4 0 -13 27 -20 60 -7 33 -16 60 -20 60 -4 0 -13 27 -20 60 -7
33 -16 60 -20 60 -4 0 -16 33 -25 73 -10 39 -21 74 -25 77 -3 3 -12 31 -20 63
-7 31 -17 57 -21 57 -4 0 -10 18 -14 40 -7 44 -18 48 -55 21z"/>
</g>
</svg>
